<?xml version="1.0" encoding="utf-8"?>
<!-- Generator: Adobe Illustrator 16.0.4, SVG Export Plug-In . SVG Version: 6.00 Build 0)  -->
<!DOCTYPE svg PUBLIC "-//W3C//DTD SVG 1.1//EN" "http://www.w3.org/Graphics/SVG/1.1/DTD/svg11.dtd">
<svg version="1.1" id="Layer_1" xmlns="http://www.w3.org/2000/svg" xmlns:xlink="http://www.w3.org/1999/xlink" x="0px" y="0px"
	 width="264.667px" height="30.167px" viewBox="0 0 264.667 30.167" enable-background="new 0 0 264.667 30.167"
	 xml:space="preserve">
<g>
	<polygon points="11.783,1.69 1.46,30.045 4.023,30.045 12.196,7.585 20.369,30.045 22.915,30.045 12.196,0.557 	"/>
	<polygon points="170.547,1.456 160.223,29.811 162.788,29.811 170.959,7.35 179.132,29.811 181.68,29.811 170.959,0.322 	"/>
	<polygon points="39.631,24.801 26.654,2.334 24.316,2.334 24.316,2.773 24.316,29.821 26.691,29.821 26.691,7.121 39.816,29.821 
		42.008,29.821 42.008,2.334 39.631,2.334 	"/>
	<path d="M59.081,4.427c2.974,0.003,5.529,0.97,7.742,2.932l0.295,0.262L68.897,6l-0.356-0.324
		c-2.666-2.431-5.846-3.661-9.459-3.657c-3.873-0.004-7.223,1.383-9.948,4.12c-2.732,2.732-4.115,6.078-4.111,9.94
		c-0.004,3.873,1.379,7.222,4.111,9.948c2.725,2.732,6.075,4.116,9.948,4.111c3.616,0.004,6.77-1.256,9.367-3.747l0.136-0.13v-0.188
		v-9.087h-2.375v8.334c-2.074,1.616-4.428,2.423-7.128,2.426c-3.233-0.004-5.946-1.127-8.237-3.415
		c-2.286-2.29-3.41-5.008-3.415-8.253c0.004-3.233,1.128-5.947,3.414-8.236C53.135,5.555,55.848,4.432,59.081,4.427z"/>
	<polygon points="71.697,2.334 71.697,29.821 85.88,29.821 85.88,27.447 74.073,27.447 74.073,17.266 85.88,17.266 85.88,14.891 
		74.073,14.891 74.073,4.71 85.88,4.71 85.88,2.334 85.441,2.334 	"/>
	<polygon points="91.27,2.335 88.895,2.335 88.895,29.822 89.334,29.822 101.581,29.822 101.581,27.447 91.27,27.447 	"/>
	<path d="M127.272,12.557c-1.296-0.603-2.295-1.262-3-1.957c-0.731-0.737-1.081-1.578-1.085-2.614
		c0.004-1.05,0.354-1.892,1.085-2.626c0.737-0.726,1.578-1.073,2.616-1.077c1.04,0.004,1.881,0.348,2.62,1.071
		c0.414,0.415,0.702,0.857,0.878,1.337l0.155,0.422l2.145-0.85l-0.124-0.39c-0.254-0.803-0.72-1.528-1.374-2.158l0,0
		c0,0-0.001-0.001-0.002-0.001c0-0.001-0.001-0.001-0.002-0.002l0,0c-1.178-1.169-2.641-1.773-4.297-1.769
		c-1.666-0.004-3.133,0.603-4.3,1.784c-1.173,1.171-1.78,2.623-1.776,4.26c-0.004,1.666,0.601,3.134,1.777,4.301
		c1.151,1.151,2.702,2.043,4.632,2.689v0c1.55,0.636,2.845,1.479,3.897,2.532c1.176,1.184,1.747,2.555,1.751,4.214
		c-0.004,1.669-0.576,3.047-1.751,4.229c-1.181,1.176-2.559,1.745-4.23,1.75c-1.656-0.004-3.03-0.573-4.21-1.749
		c-0.383-0.384-1.765-3.456-1.765-3.456l-8.087-22.249l-0.413,1.134L102.09,29.736h2.564l8.171-22.46l6.034,16.601
		c0.358,1.391,1.066,2.648,2.148,3.728c1.61,1.627,3.604,2.46,5.88,2.456c2.278,0.004,4.271-0.823,5.884-2.44
		c1.618-1.611,2.443-3.611,2.439-5.897c0.004-2.277-0.822-4.267-2.441-5.866C131.28,14.364,129.437,13.265,127.272,12.557z"/>
	<path d="M158.656,24.476l-0.293,0.26c-2.211,1.961-4.766,2.929-7.739,2.932c-3.235-0.004-5.947-1.128-8.239-3.415
		c-2.285-2.289-3.41-5.008-3.414-8.252c0.004-3.234,1.129-5.947,3.414-8.238c2.292-2.286,5.004-3.409,8.239-3.414
		c2.974,0.003,5.528,0.971,7.739,2.932l0.296,0.263l1.78-1.623l-0.357-0.324c-2.666-2.429-5.847-3.66-9.458-3.656
		c-3.874-0.004-7.224,1.382-9.95,4.12c-2.73,2.731-4.115,6.076-4.111,9.94c-0.004,3.873,1.38,7.221,4.111,9.947
		c2.728,2.732,6.076,4.115,9.95,4.111c3.611,0.003,6.792-1.225,9.459-3.656l0.359-0.327L158.656,24.476z"/>
	<polygon points="198.264,24.724 185.285,2.257 182.946,2.257 182.946,2.696 182.946,29.744 185.322,29.744 185.322,7.043 
		198.45,29.744 200.637,29.744 200.637,2.257 198.264,2.257 	"/>
	<polygon points="206.443,2.258 204.068,2.258 204.068,29.745 204.508,29.745 216.756,29.745 216.756,27.37 206.443,27.37 	"/>
	<path d="M230.412,1.875c-3.873-0.004-7.229,1.385-9.965,4.128c-2.744,2.736-4.133,6.091-4.129,9.964
		c-0.004,3.874,1.385,7.228,4.129,9.964c2.736,2.743,6.092,4.132,9.965,4.127c3.873,0.004,7.227-1.384,9.965-4.127
		c2.742-2.736,4.131-6.091,4.127-9.964c0.004-3.874-1.385-7.228-4.127-9.964C237.639,3.26,234.285,1.871,230.412,1.875z
		 M230.412,27.669c-3.246-0.004-5.967-1.134-8.264-3.43c-2.291-2.302-3.417-5.026-3.422-8.271c0.005-3.245,1.131-5.967,3.422-8.264
		c2.297-2.29,5.018-3.417,8.264-3.421c3.245,0.004,5.964,1.132,8.261,3.421c2.29,2.297,3.419,5.02,3.423,8.264
		c-0.004,3.244-1.133,5.969-3.423,8.271C236.375,26.535,233.656,27.665,230.412,27.669z"/>
	<polygon points="262.216,2.257 262.216,24.724 249.237,2.257 246.898,2.257 246.898,2.696 246.898,29.744 249.273,29.744 
		249.273,7.043 262.402,29.744 264.592,29.744 264.592,2.257 	"/>
</g>
</svg>
