<?xml version="1.0" encoding="utf-8"?>
<!-- Generator: Adobe Illustrator 16.0.4, SVG Export Plug-In . SVG Version: 6.00 Build 0)  -->
<!DOCTYPE svg PUBLIC "-//W3C//DTD SVG 1.1//EN" "http://www.w3.org/Graphics/SVG/1.1/DTD/svg11.dtd">
<svg version="1.1" id="Layer_1" xmlns="http://www.w3.org/2000/svg" xmlns:xlink="http://www.w3.org/1999/xlink" x="0px" y="0px"
	 width="36px" height="36px" viewBox="0 0 36 36" enable-background="new 0 0 36 36" xml:space="preserve">
<g id="Square_Background" display="none">
	<rect display="inline" width="36" height="36"/>
</g>
<g id="Icons">
	<path fill="#FFFFFF" d="M25.816,9.123H10.183c-0.585,0-1.06,0.475-1.06,1.06v15.635c0,0.584,0.475,1.06,1.06,1.06h15.635
		c0.584,0,1.06-0.476,1.06-1.06V10.183C26.877,9.598,26.402,9.123,25.816,9.123z M15.734,15.944
		c0.555-0.629,1.363-1.028,2.266-1.028c0.9,0,1.71,0.399,2.266,1.028c0.471,0.533,0.758,1.23,0.758,1.996
		c0,1.667-1.355,3.024-3.022,3.024c-1.668,0-3.024-1.356-3.024-3.024C14.976,17.176,15.264,16.478,15.734,15.944z M25.008,25.008
		H10.992v-9.063h2.545c-0.273,0.61-0.431,1.285-0.431,1.996c0,2.698,2.195,4.893,4.894,4.893s4.893-2.193,4.893-4.893
		c0-0.711-0.156-1.386-0.431-1.996h2.546V25.008z M25.008,12.96c0,0.471-0.382,0.853-0.854,0.853h-1.113
		c-0.473,0-0.854-0.382-0.854-0.853v-1.115c0-0.471,0.381-0.853,0.854-0.853h1.113c0.472,0,0.854,0.382,0.854,0.853V12.96z"/>
</g>
</svg>
