<?xml version="1.0" encoding="utf-8"?>
<!-- Generator: Adobe Illustrator 16.0.4, SVG Export Plug-In . SVG Version: 6.00 Build 0)  -->
<!DOCTYPE svg PUBLIC "-//W3C//DTD SVG 1.1//EN" "http://www.w3.org/Graphics/SVG/1.1/DTD/svg11.dtd">
<svg version="1.1" id="Layer_1" xmlns="http://www.w3.org/2000/svg" xmlns:xlink="http://www.w3.org/1999/xlink" x="0px" y="0px"
	 width="36px" height="36px" viewBox="0 0 36 36" enable-background="new 0 0 36 36" xml:space="preserve">
<g id="Square_Background" display="none">
	<rect display="inline" width="36" height="36"/>
</g>
<g id="Icons">
	<path fill="#FFFFFF" d="M16.754,21.191c-0.472,2.479-1.05,4.854-2.76,6.097c-0.527-3.745,0.776-6.56,1.38-9.545
		c-1.031-1.735,0.125-5.231,2.3-4.37c2.678,1.061-2.319,6.455,1.035,7.13c3.501,0.704,4.93-6.075,2.759-8.28
		c-3.136-3.183-9.131-0.072-8.394,4.484c0.179,1.115,1.33,1.453,0.459,2.99c-2.007-0.444-2.606-2.027-2.53-4.139
		c0.125-3.455,3.105-5.875,6.095-6.211c3.781-0.422,7.33,1.389,7.819,4.945c0.552,4.015-1.707,8.362-5.75,8.05
		C18.074,22.258,17.614,21.715,16.754,21.191z"/>
</g>
</svg>
