<?xml version="1.0" encoding="utf-8"?>
<!-- Generator: Adobe Illustrator 16.0.4, SVG Export Plug-In . SVG Version: 6.00 Build 0)  -->
<!DOCTYPE svg PUBLIC "-//W3C//DTD SVG 1.1//EN" "http://www.w3.org/Graphics/SVG/1.1/DTD/svg11.dtd">
<svg version="1.1" id="Layer_1" xmlns="http://www.w3.org/2000/svg" xmlns:xlink="http://www.w3.org/1999/xlink" x="0px" y="0px"
	 width="36px" height="36px" viewBox="0 0 36 36" enable-background="new 0 0 36 36" xml:space="preserve">
<g id="Square_Background" display="none">
	<rect display="inline" width="36" height="36"/>
</g>
<g id="Icons">
	<path fill="#FFFFFF" d="M26.9,12.707c-0.664,0.292-1.375,0.49-2.121,0.58c0.763-0.457,1.349-1.18,1.625-2.043
		c-0.715,0.424-1.506,0.729-2.346,0.896c-0.676-0.716-1.635-1.166-2.695-1.166c-2.041,0-3.693,1.653-3.693,3.694
		c0,0.289,0.033,0.57,0.096,0.841c-3.069-0.154-5.791-1.625-7.612-3.858c-0.316,0.546-0.501,1.18-0.501,1.855
		c0,1.281,0.653,2.412,1.645,3.075c-0.604-0.021-1.174-0.186-1.674-0.463c0,0.016,0,0.032,0,0.047c0,1.788,1.273,3.28,2.962,3.62
		c-0.308,0.084-0.634,0.129-0.973,0.129c-0.236,0-0.469-0.021-0.694-0.064c0.471,1.467,1.834,2.534,3.449,2.562
		c-1.263,0.992-2.855,1.583-4.586,1.583c-0.297,0-0.591-0.019-0.88-0.054c1.634,1.05,3.575,1.66,5.662,1.66
		c6.792,0,10.504-5.627,10.504-10.506c0-0.16-0.004-0.319-0.01-0.479C25.779,14.096,26.404,13.446,26.9,12.707z"/>
</g>
</svg>
